<?xml version="1.0" standalone="no"?>
<!DOCTYPE svg PUBLIC "-//W3C//DTD SVG 1.1//EN" "http://www.w3.org/Graphics/SVG/1.1/DTD/svg11.dtd" >
<svg xmlns="http://www.w3.org/2000/svg" xmlns:xlink="http://www.w3.org/1999/xlink" version="1.1">
<metadata>
Created by FontForge 20201107 at Mon Feb  2 11:48:31 1970
 By Jimmy Wärting
Sanjar
</metadata>
<defs>
<font id="TheImpostor" horiz-adv-x="896" >
  <font-face 
    font-family="The Impostor"
    font-weight="400"
    font-stretch="normal"
    units-per-em="1024"
    panose-1="0 0 4 0 0 0 0 0 0 0"
    ascent="819"
    descent="-205"
    x-height="1152"
    cap-height="1152"
    bbox="0 -256 1024 1152"
    underline-thickness="51"
    underline-position="77"
    unicode-range="U+0020-007A"
  />
<missing-glyph horiz-adv-x="128" 
 />
    <glyph glyph-name=".notdef" horiz-adv-x="128" 
 />
    <glyph glyph-name="glyph1" horiz-adv-x="128" 
 />
    <glyph glyph-name="space" unicode=" " horiz-adv-x="384" 
 />
    <glyph glyph-name="exclam" unicode="!" horiz-adv-x="384" 
d="M0 1152h256v-768h-256v768zM0 256h256v-256h-256v256z" />
    <glyph glyph-name="quotedbl" unicode="&#x22;" horiz-adv-x="768" 
d="M0 1152h256v-384h-256v384zM384 1152h256v-384h-256v384z" />
    <glyph glyph-name="numbersign" unicode="#" horiz-adv-x="1024" 
d="M128 1152h256v-256h128v256h256v-256h128v-256h-128v-256h128v-256h-128v-128h-256v128h-128v-128h-256v128h-128v256h128v256h-128v256h128v256zM384 640v-256h128v256h-128z" />
    <glyph glyph-name="percent" unicode="%" horiz-adv-x="1024" 
d="M0 1152h384v-256h-128v128h-128v-256h128v-128h-256v512zM512 1152h256v-384h-128v-256h-128v-256h-128v-256h-256v384h128v256h128v256h128v256zM640 512h256v-512h-384v256h128v-128h128v256h-128v128z" />
    <glyph glyph-name="quotesingle" unicode="'" horiz-adv-x="384" 
d="M0 1152h256v-384h-256v384z" />
    <glyph glyph-name="parenleft" unicode="(" horiz-adv-x="512" 
d="M128 1152h256v-256h-128v-640h128v-256h-256v128h-128v896h128v128z" />
    <glyph glyph-name="parenright" unicode=")" horiz-adv-x="512" 
d="M0 1152h256v-128h128v-896h-128v-128h-256v256h128v640h-128v256z" />
    <glyph glyph-name="asterisk" unicode="*" horiz-adv-x="640" 
d="M128 1152h256v-128h128v-128h-128v-128h-256v128h-128v128h128v128zM0 768h128v-128h-128v128zM384 768h128v-128h-128v128z" />
    <glyph glyph-name="plus" unicode="+" 
d="M256 1024h256v-256h256v-256h-256v-256h-256v256h-256v256h256v256z" />
    <glyph glyph-name="comma" unicode="," horiz-adv-x="512" 
d="M0 256h384v-384h-128v-128h-256v128h128v128h-128v256z" />
    <glyph glyph-name="hyphen" unicode="-" 
d="M0 768h768v-256h-768v256z" />
    <glyph glyph-name="period" unicode="." horiz-adv-x="384" 
d="M0 256h256v-256h-256v256z" />
    <glyph glyph-name="zero" unicode="0" 
d="M128 1152h512v-128h128v-896h-128v-128h-512v128h-128v896h128v128zM256 896v-128h128v-128h128v256h-256zM256 512v-256h256v128h-128v128h-128z" />
    <glyph glyph-name="one" unicode="1" 
d="M256 1152h256v-896h256v-256h-768v256h256v384h-256v256h128v128h128v128z" />
    <glyph glyph-name="two" unicode="2" 
d="M128 1152h512v-128h128v-384h-128v-128h-128v-128h-128v-128h384v-256h-768v384h128v128h128v128h128v128h128v128h-256v-128h-256v256h128v128z" />
    <glyph glyph-name="three" unicode="3" 
d="M128 1152h512v-128h128v-384h-128v-128h128v-384h-128v-128h-512v128h-128v256h256v-128h256v256h-256v256h256v128h-256v-128h-256v256h128v128z" />
    <glyph glyph-name="four" unicode="4" 
d="M0 1152h256v-512h256v512h256v-1152h-256v384h-384v128h-128v640z" />
    <glyph glyph-name="five" unicode="5" 
d="M0 1152h768v-256h-512v-128h384v-128h128v-512h-128v-128h-640v256h512v256h-384v128h-128v512z" />
    <glyph glyph-name="six" unicode="6" 
d="M128 1152h512v-128h128v-256h-128v-128h128v-512h-128v-128h-512v128h-128v896h128v128zM256 896v-128h256v128h-256zM256 512v-256h256v256h-256z" />
    <glyph glyph-name="seven" unicode="7" 
d="M0 1152h768v-256h-128v-256h-128v-384h-128v-256h-256v256h128v384h128v256h-384v256z" />
    <glyph glyph-name="eight" unicode="8" 
d="M128 1152h512v-128h128v-384h-128v-128h128v-384h-128v-128h-512v128h-128v384h128v128h-128v384h128v128zM256 896v-128h256v128h-256zM256 512v-256h256v256h-256z" />
    <glyph glyph-name="nine" unicode="9" 
d="M128 1152h512v-128h128v-896h-128v-128h-512v128h-128v256h256v-128h256v256h-384v128h-128v384h128v128zM256 896v-128h256v128h-256z" />
    <glyph glyph-name="colon" unicode=":" horiz-adv-x="384" 
d="M0 1024h256v-256h-256v256zM0 384h256v-256h-256v256z" />
    <glyph glyph-name="semicolon" unicode=";" horiz-adv-x="384" 
d="M0 1024h256v-256h-256v256zM0 384h256v-512h-256v128h128v128h-128v256z" />
    <glyph glyph-name="question" unicode="?" 
d="M128 1152h512v-128h128v-384h-128v-128h-128v-128h-256v256h128v128h128v128h-256v-128h-256v256h128v128zM256 256h256v-256h-256v256z" />
    <glyph glyph-name="at" unicode="@" horiz-adv-x="1152" 
d="M128 1152h768v-128h128v-640h-128v512h-128v128h-512v-128h-128v-640h128v-128h512v128h256v-128h-128v-128h-768v128h-128v896h128v128zM384 896h256v-128h-256v128zM256 768h128v-128h-128v128zM640 768h128v-512h-384v128h256v128h-256v128h256v128zM256 512h128v-128
h-128v128z" />
    <glyph glyph-name="A" unicode="A" 
d="M128 1152h512v-128h128v-1024h-256v384h-256v-384h-256v1024h128v128zM256 896v-256h256v256h-256z" />
    <glyph glyph-name="B" unicode="B" 
d="M0 1152h640v-128h128v-384h-128v-128h128v-384h-128v-128h-640v1152zM256 896v-128h256v128h-256zM256 512v-256h256v256h-256z" />
    <glyph glyph-name="C" unicode="C" 
d="M128 1152h512v-128h128v-256h-256v128h-256v-640h256v128h256v-256h-128v-128h-512v128h-128v896h128v128z" />
    <glyph glyph-name="D" unicode="D" 
d="M0 1152h640v-128h128v-896h-128v-128h-640v1152zM256 896v-640h256v640h-256z" />
    <glyph glyph-name="E" unicode="E" horiz-adv-x="768" 
d="M0 1152h640v-256h-384v-128h384v-256h-384v-256h384v-256h-640v1152z" />
    <glyph glyph-name="F" unicode="F" horiz-adv-x="768" 
d="M0 1152h640v-256h-384v-128h384v-256h-384v-512h-256v1152z" />
    <glyph glyph-name="G" unicode="G" 
d="M128 1152h512v-128h128v-256h-256v128h-256v-640h256v128h-128v256h384v-512h-128v-128h-512v128h-128v896h128v128z" />
    <glyph glyph-name="H" unicode="H" 
d="M0 1152h256v-384h256v384h256v-1152h-256v512h-256v-512h-256v1152z" />
    <glyph glyph-name="I" unicode="I" 
d="M0 1152h768v-256h-256v-640h256v-256h-768v256h256v640h-256v256z" />
    <glyph glyph-name="J" unicode="J" 
d="M0 1152h768v-256h-256v-768h-128v-128h-384v256h256v640h-256v256z" />
    <glyph glyph-name="K" unicode="K" 
d="M0 1152h256v-384h128v128h128v256h256v-384h-128v-128h-128v-128h128v-128h128v-384h-256v256h-128v128h-128v-384h-256v1152z" />
    <glyph glyph-name="L" unicode="L" horiz-adv-x="768" 
d="M0 1152h256v-896h384v-256h-640v1152z" />
    <glyph glyph-name="M" unicode="M" horiz-adv-x="1024" 
d="M0 1152h256v-128h128v-128h128v128h128v128h256v-1152h-256v512h-128v-128h-128v128h-128v-512h-256v1152z" />
    <glyph glyph-name="N" unicode="N" 
d="M0 1152h256v-256h128v-128h128v384h256v-1152h-256v256h-128v128h-128v-384h-256v1152z" />
    <glyph glyph-name="O" unicode="O" 
d="M128 1152h512v-128h128v-896h-128v-128h-512v128h-128v896h128v128zM256 896v-640h256v640h-256z" />
    <glyph glyph-name="P" unicode="P" 
d="M0 1152h640v-128h128v-512h-128v-128h-384v-384h-256v1152zM256 896v-256h256v256h-256z" />
    <glyph glyph-name="Q" unicode="Q" 
d="M128 1152h512v-128h128v-1024h-640v128h-128v896h128v128zM256 896v-640h128v256h128v384h-256z" />
    <glyph glyph-name="R" unicode="R" 
d="M0 1152h640v-128h128v-384h-128v-128h128v-512h-256v384h-256v-384h-256v1152zM256 896v-256h256v256h-256z" />
    <glyph glyph-name="S" unicode="S" 
d="M128 1152h512v-128h128v-256h-128v-128h128v-512h-128v-128h-512v128h-128v256h256v-128h256v256h-384v128h-128v384h128v128zM256 896v-128h256v128h-256z" />
    <glyph glyph-name="T" unicode="T" 
d="M0 1152h768v-256h-256v-896h-256v896h-256v256z" />
    <glyph glyph-name="U" unicode="U" 
d="M0 1152h256v-896h256v896h256v-1024h-128v-128h-512v128h-128v1024z" />
    <glyph glyph-name="V" unicode="V" horiz-adv-x="1024" 
d="M0 1152h256v-384h128v-384h128v384h128v384h256v-512h-128v-384h-128v-256h-384v256h-128v384h-128v512z" />
    <glyph glyph-name="W" unicode="W" horiz-adv-x="1024" 
d="M0 1152h256v-512h128v128h128v-128h128v512h256v-1152h-256v128h-128v128h-128v-128h-128v-128h-256v1152z" />
    <glyph glyph-name="X" unicode="X" 
d="M0 1152h256v-256h256v256h256v-384h-128v-128h128v-640h-256v512h-256v-512h-256v640h128v128h-128v384z" />
    <glyph glyph-name="Y" unicode="Y" 
d="M0 1152h256v-512h256v512h256v-640h-128v-128h-128v-384h-256v384h-128v128h-128v640z" />
    <glyph glyph-name="Z" unicode="Z" 
d="M0 1152h768v-384h-128v-128h-128v-128h-128v-128h-128v-128h512v-256h-768v512h128v128h128v128h128v128h-384v256z" />
    <glyph glyph-name="a" unicode="a" 
d="M128 1152h512v-128h128v-1024h-256v384h-256v-384h-256v1024h128v128zM256 896v-256h256v256h-256z" />
    <glyph glyph-name="b" unicode="b" 
d="M0 1152h640v-128h128v-384h-128v-128h128v-384h-128v-128h-640v1152zM256 896v-128h256v128h-256zM256 512v-256h256v256h-256z" />
    <glyph glyph-name="c" unicode="c" 
d="M128 1152h512v-128h128v-256h-256v128h-256v-640h256v128h256v-256h-128v-128h-512v128h-128v896h128v128z" />
    <glyph glyph-name="d" unicode="d" 
d="M0 1152h640v-128h128v-896h-128v-128h-640v1152zM256 896v-640h256v640h-256z" />
    <glyph glyph-name="e" unicode="e" horiz-adv-x="768" 
d="M0 1152h640v-256h-384v-128h384v-256h-384v-256h384v-256h-640v1152z" />
    <glyph glyph-name="f" unicode="f" horiz-adv-x="768" 
d="M0 1152h640v-256h-384v-128h384v-256h-384v-512h-256v1152z" />
    <glyph glyph-name="g" unicode="g" 
d="M128 1152h512v-128h128v-256h-256v128h-256v-640h256v128h-128v256h384v-512h-128v-128h-512v128h-128v896h128v128z" />
    <glyph glyph-name="h" unicode="h" 
d="M0 1152h256v-384h256v384h256v-1152h-256v512h-256v-512h-256v1152z" />
    <glyph glyph-name="i" unicode="i" 
d="M0 1152h768v-256h-256v-640h256v-256h-768v256h256v640h-256v256z" />
    <glyph glyph-name="j" unicode="j" 
d="M0 1152h768v-256h-256v-768h-128v-128h-384v256h256v640h-256v256z" />
    <glyph glyph-name="k" unicode="k" 
d="M0 1152h256v-384h128v128h128v256h256v-384h-128v-128h-128v-128h128v-128h128v-384h-256v256h-128v128h-128v-384h-256v1152z" />
    <glyph glyph-name="l" unicode="l" horiz-adv-x="768" 
d="M0 1152h256v-896h384v-256h-640v1152z" />
    <glyph glyph-name="m" unicode="m" horiz-adv-x="1024" 
d="M0 1152h256v-128h128v-128h128v128h128v128h256v-1152h-256v512h-128v-128h-128v128h-128v-512h-256v1152z" />
    <glyph glyph-name="n" unicode="n" 
d="M0 1152h256v-256h128v-128h128v384h256v-1152h-256v256h-128v128h-128v-384h-256v1152z" />
    <glyph glyph-name="o" unicode="o" 
d="M128 1152h512v-128h128v-896h-128v-128h-512v128h-128v896h128v128zM256 896v-640h256v640h-256z" />
    <glyph glyph-name="p" unicode="p" 
d="M0 1152h640v-128h128v-512h-128v-128h-384v-384h-256v1152zM256 896v-256h256v256h-256z" />
    <glyph glyph-name="q" unicode="q" 
d="M128 1152h512v-128h128v-1024h-640v128h-128v896h128v128zM256 896v-640h128v256h128v384h-256z" />
    <glyph glyph-name="r" unicode="r" 
d="M0 1152h640v-128h128v-384h-128v-128h128v-512h-256v384h-256v-384h-256v1152zM256 896v-256h256v256h-256z" />
    <glyph glyph-name="s" unicode="s" 
d="M128 1152h512v-128h128v-256h-128v-128h128v-512h-128v-128h-512v128h-128v256h256v-128h256v256h-384v128h-128v384h128v128zM256 896v-128h256v128h-256z" />
    <glyph glyph-name="t" unicode="t" 
d="M0 1152h768v-256h-256v-896h-256v896h-256v256z" />
    <glyph glyph-name="u" unicode="u" 
d="M0 1152h256v-896h256v896h256v-1024h-128v-128h-512v128h-128v1024z" />
    <glyph glyph-name="v" unicode="v" horiz-adv-x="1024" 
d="M0 1152h256v-384h128v-384h128v384h128v384h256v-512h-128v-384h-128v-256h-384v256h-128v384h-128v512z" />
    <glyph glyph-name="w" unicode="w" horiz-adv-x="1024" 
d="M0 1152h256v-512h128v128h128v-128h128v512h256v-1152h-256v128h-128v128h-128v-128h-128v-128h-256v1152z" />
    <glyph glyph-name="x" unicode="x" 
d="M0 1152h256v-256h256v256h256v-384h-128v-128h128v-640h-256v512h-256v-512h-256v640h128v128h-128v384z" />
    <glyph glyph-name="y" unicode="y" 
d="M0 1152h256v-512h256v512h256v-640h-128v-128h-128v-384h-256v384h-128v128h-128v640z" />
    <glyph glyph-name="z" unicode="z" 
d="M0 1152h768v-384h-128v-128h-128v-128h-128v-128h-128v-128h512v-256h-768v512h128v128h128v128h128v128h-384v256z" />
  </font>
</defs>
</svg>
